<?xml version="1.0" standalone="no"?>
<!DOCTYPE svg PUBLIC "-//W3C//DTD SVG 20010904//EN"
 "http://www.w3.org/TR/2001/REC-SVG-20010904/DTD/svg10.dtd">
<svg version="1.0" xmlns="http://www.w3.org/2000/svg"
 width="550.000000pt" height="367.000000pt" viewBox="0 0 550.000000 367.000000"
 preserveAspectRatio="xMidYMid meet">
<metadata>
Created by potrace 1.15, written by Peter Selinger 2001-2017
</metadata>
<g transform="translate(0.000000,367.000000) scale(0.100000,-0.100000)"
fill="#000000" stroke="none">
<path d="M1490 3443 c-8 -3 -22 -7 -30 -10 -31 -12 -53 -13 -66 -2 -15 12 -51
3 -71 -17 -20 -19 20 -27 99 -20 204 20 202 20 200 -14 0 -3 20 -3 44 -1 48 3
79 -13 69 -37 -6 -17 13 -44 26 -36 5 3 9 1 9 -5 0 -6 -11 -13 -25 -17 -30 -7
-47 -34 -35 -54 5 -8 7 -17 5 -21 -7 -10 38 -46 66 -52 21 -6 33 1 67 38 23
25 42 44 42 41 0 -2 30 7 68 20 37 13 83 24 102 24 19 1 49 7 65 15 l30 13
-30 1 c-23 1 -27 3 -15 11 8 6 27 7 43 4 15 -3 27 -1 27 5 0 5 -10 12 -22 14
-14 3 -8 5 15 6 30 1 40 6 44 21 3 11 9 20 14 20 4 0 13 9 19 20 10 18 8 20
-17 20 -15 -1 -129 -1 -252 0 -131 0 -249 -5 -283 -11 -32 -7 -61 -9 -64 -6
-3 3 10 9 30 12 71 14 45 24 -56 23 -57 -1 -110 -3 -118 -5z"/>
<path d="M3775 3390 c-2 -4 -35 -8 -72 -8 -37 -1 -69 -6 -71 -12 -2 -5 -18
-10 -35 -11 l-32 -1 30 -14 c26 -13 27 -14 5 -9 -14 3 -35 8 -47 11 -15 4 -23
2 -23 -6 0 -10 -3 -10 -15 0 -31 26 -26 0 6 -28 30 -26 34 -52 8 -52 -6 0 -7
5 -4 10 7 12 -73 89 -92 90 -7 0 -13 -11 -13 -24 0 -17 7 -26 26 -30 45 -12
21 -15 -41 -7 -33 5 -62 6 -65 2 -3 -3 -30 -7 -60 -8 -30 -1 -72 -7 -92 -14
-31 -10 -39 -9 -53 5 -22 21 -28 20 -15 -3 9 -17 6 -20 -18 -23 -15 -2 -26 -8
-25 -14 1 -7 -9 -9 -25 -7 -21 4 -24 2 -12 -6 13 -9 13 -11 -1 -11 -9 0 -29
11 -45 25 l-29 26 28 -6 c15 -3 38 -7 51 -10 28 -6 46 13 25 26 -8 4 -44 11
-82 15 -37 4 -70 11 -73 15 -17 29 -171 -7 -223 -51 -20 -17 -57 -40 -83 -52
-50 -22 -59 -40 -38 -79 11 -20 45 -26 55 -9 10 16 29 11 43 -11 10 -15 10
-24 2 -34 -9 -11 -7 -13 12 -11 38 4 56 16 62 42 4 13 11 24 16 24 6 0 10 7
10 15 0 8 -4 15 -10 15 -5 0 -10 9 -10 20 0 11 7 20 15 20 8 0 20 9 27 20 12
19 48 27 61 13 4 -3 -7 -15 -23 -25 -27 -16 -29 -21 -19 -39 10 -19 17 -20 64
-14 34 4 55 2 60 -4 7 -12 -4 -14 -48 -11 -26 1 -27 0 -21 -27 7 -25 6 -27 -9
-15 -13 11 -17 10 -27 -7 -6 -12 -8 -21 -4 -21 3 0 2 -6 -4 -12 -7 -9 -39 -13
-94 -13 l-83 0 -3 28 c-2 16 -8 26 -15 24 -13 -4 -14 -22 -3 -48 5 -12 0 -18
-18 -23 -13 -3 -31 -12 -38 -19 -28 -26 -82 -60 -95 -60 -7 0 -13 -4 -13 -9 0
-4 -11 -8 -25 -8 -31 0 -32 -12 -3 -25 30 -14 42 -38 34 -70 -7 -27 -8 -27
-67 -22 -32 2 -61 1 -64 -3 -2 -4 -7 -39 -10 -79 l-5 -71 30 0 c40 0 40 -28 2
-67 -37 -36 -53 -68 -46 -86 3 -10 -10 -27 -36 -48 -28 -23 -53 -57 -76 -106
-33 -67 -34 -76 -26 -124 10 -51 1 -110 -20 -136 -6 -7 -5 -14 2 -18 5 -3 10
-15 10 -25 0 -11 13 -41 30 -67 17 -26 30 -53 30 -60 0 -8 24 -36 53 -64 43
-41 56 -49 77 -43 14 3 50 7 81 9 31 1 67 10 81 19 32 21 70 13 83 -17 7 -16
17 -21 37 -19 45 5 56 -39 33 -130 -6 -22 0 -39 23 -75 31 -49 65 -147 55
-157 -3 -3 0 -18 6 -34 10 -25 9 -34 -7 -63 -34 -58 -36 -129 -9 -212 14 -40
28 -92 31 -117 7 -46 31 -131 47 -162 5 -10 9 -30 9 -45 0 -49 11 -56 76 -48
71 9 105 25 124 59 7 14 17 26 20 26 4 0 13 13 20 29 6 16 18 32 25 35 8 3 17
21 20 40 4 20 17 41 30 50 28 19 39 63 26 99 -11 29 -7 35 99 128 29 27 29 28
24 110 -7 125 -9 143 -17 156 -4 7 -1 29 8 49 8 20 15 43 15 51 0 8 26 46 58
85 77 94 110 150 133 223 25 79 25 110 2 100 -10 -4 -40 -13 -67 -21 -55 -14
-81 -5 -71 26 3 10 -11 33 -39 62 -24 25 -49 62 -56 82 -6 20 -17 39 -24 43
-7 5 -16 25 -19 47 -3 21 -13 46 -22 56 -8 9 -15 22 -15 29 0 7 -9 26 -21 42
-11 16 -22 35 -23 42 -1 7 -8 23 -15 35 -7 13 -10 26 -8 29 3 2 11 -5 17 -17
9 -17 14 -19 20 -10 6 9 15 -1 31 -31 13 -24 29 -53 36 -64 17 -27 34 -67 38
-86 2 -9 19 -37 37 -61 21 -27 39 -67 48 -104 7 -32 16 -63 20 -67 9 -10 171
74 164 85 -3 5 10 15 29 23 39 16 66 50 85 106 15 44 10 59 -28 88 -17 12 -30
29 -30 38 0 13 -6 11 -28 -10 -37 -35 -62 -35 -62 -1 0 19 -4 25 -15 20 -8 -3
-15 0 -15 7 -1 7 -14 27 -30 46 -28 33 -30 61 -5 61 7 0 29 -21 50 -46 36 -43
39 -45 76 -39 32 6 39 4 39 -9 0 -18 17 -22 110 -30 60 -6 68 -9 103 -46 21
-22 34 -40 27 -40 -8 0 -8 -6 0 -20 13 -24 50 -27 50 -3 0 32 10 6 21 -53 11
-64 92 -270 115 -294 13 -13 16 -13 24 0 5 8 10 23 10 32 0 9 4 19 8 22 5 3 8
35 7 71 -1 63 1 68 37 107 21 23 38 47 38 55 0 7 6 16 14 19 8 3 19 19 25 36
6 16 15 27 21 23 5 -3 19 -1 30 5 17 9 22 7 29 -12 5 -13 19 -32 31 -43 33
-30 51 -71 44 -100 -5 -20 -3 -25 14 -25 11 0 25 7 32 16 12 13 16 9 32 -33
10 -26 19 -75 20 -108 1 -44 8 -70 25 -97 13 -21 23 -45 23 -53 0 -22 30 -77
49 -92 23 -18 34 -16 25 5 -4 9 -8 32 -10 50 -1 21 -15 46 -38 72 -20 22 -36
47 -36 55 0 8 -4 15 -9 15 -5 0 -9 29 -9 65 0 36 3 65 7 65 3 -1 17 -15 31
-32 14 -18 35 -42 48 -55 12 -13 22 -30 22 -38 0 -8 3 -15 7 -15 11 0 83 81
83 93 0 33 -23 86 -46 108 -14 13 -35 36 -46 52 -19 27 -19 27 2 62 21 34 50
39 50 9 0 -8 6 -14 13 -14 6 0 4 -5 -5 -11 -10 -5 -18 -17 -18 -25 0 -9 7 -14
18 -12 17 4 22 38 8 68 -6 14 18 30 57 38 52 11 94 69 104 143 4 30 2 40 -11
45 -12 5 -14 10 -6 19 11 13 7 19 -60 91 -17 19 -18 23 -5 40 22 30 18 37 -20
30 -22 -4 -35 -3 -35 4 0 5 -6 10 -14 10 -8 0 -17 7 -20 16 -8 22 -8 24 8 24
8 0 16 7 20 15 3 8 12 15 21 15 12 0 14 -6 9 -27 l-7 -27 28 22 c28 22 45 21
45 -3 0 -8 11 -17 25 -21 20 -5 26 -14 31 -45 8 -45 12 -50 42 -42 33 8 27 47
-14 93 -20 22 -31 40 -25 40 6 0 11 16 11 35 0 27 4 35 18 35 25 0 42 40 42
101 0 35 -4 51 -15 55 -8 4 -15 14 -15 23 0 23 -53 61 -85 61 -16 0 -24 4 -20
10 4 7 -2 9 -19 4 -31 -7 -32 -4 -6 46 l20 40 70 0 c39 0 70 -4 70 -9 0 -5 9
-7 20 -4 11 3 20 10 19 17 -3 25 2 34 20 39 11 2 24 0 31 -7 8 -8 14 -7 24 6
11 15 13 15 23 0 5 -10 7 -26 2 -37 -20 -52 -11 -71 53 -114 33 -22 65 -41 69
-41 4 0 4 13 -1 29 -4 16 -5 32 -2 36 4 3 2 9 -3 13 -6 4 -15 16 -22 27 -6 11
-16 19 -22 18 -6 -2 -15 6 -21 16 -8 16 -5 21 20 30 17 5 37 8 45 5 8 -4 28 5
44 18 l28 25 -29 11 c-25 9 -28 13 -16 25 8 9 15 11 19 5 4 -6 29 -12 56 -15
45 -4 50 -3 48 16 -2 29 -5 31 -76 36 -35 2 -98 9 -139 14 -99 13 -163 14
-155 1 4 -6 -2 -7 -17 -1 -13 4 -66 12 -118 16 -194 16 -235 20 -317 29 -39 4
-63 3 -63 -3 0 -5 -11 -8 -25 -5 -19 3 -23 1 -19 -11 8 -20 4 -19 -68 13 -61
28 -125 36 -121 16 1 -6 -42 -10 -113 -9 -91 0 -111 2 -98 12 15 11 14 13 -7
17 -41 9 -150 13 -154 6z m-365 -499 c14 -26 13 -31 -6 -31 -8 0 -22 -7 -30
-15 -10 -9 -11 -15 -4 -15 20 0 57 -35 52 -49 -3 -10 0 -12 13 -8 25 10 39 -3
19 -17 -14 -11 -14 -14 -1 -27 8 -8 17 -24 21 -36 12 -39 -68 -38 -96 1 -3 5
-2 20 2 32 5 12 6 24 2 26 -16 7 -72 84 -72 98 0 15 56 58 77 59 7 1 17 -8 23
-18z m-264 -16 c-16 -24 -16 -25 26 -46 49 -25 61 -38 48 -54 -10 -12 -37 -12
-93 -1 -24 5 -48 4 -62 -2 -13 -6 -35 -7 -52 -3 -23 7 -28 13 -26 37 3 35 21
71 39 78 8 3 24 -5 36 -18 17 -18 28 -22 43 -16 17 7 17 9 3 9 -27 1 -22 16
10 28 42 17 46 15 28 -12z m-380 -50 c25 -19 50 -35 55 -35 5 0 9 -9 9 -19 0
-11 10 -32 23 -48 13 -15 26 -36 30 -45 3 -10 10 -18 16 -18 13 0 20 37 9 48
-17 17 -1 42 27 42 20 0 27 -6 32 -30 7 -37 61 -84 80 -69 8 7 19 7 33 -1 16
-9 25 -9 33 -1 23 23 34 11 32 -31 -5 -81 -13 -90 -81 -91 -67 0 -102 6 -134
23 -28 15 -76 9 -72 -9 2 -8 1 -20 -2 -28 -5 -12 -9 -12 -28 1 -12 9 -29 16
-37 16 -7 0 -19 7 -25 15 -6 8 -23 16 -38 19 -43 7 -72 26 -59 39 15 15 14 64
-1 69 -25 9 -155 -14 -186 -32 -21 -13 -42 -18 -58 -14 -32 8 -31 22 3 30 37
10 53 27 53 59 0 18 9 31 30 43 16 9 30 22 30 29 0 14 16 25 39 28 9 1 28 5
43 9 24 7 35 2 79 -38 28 -25 55 -46 60 -46 22 0 7 -39 -18 -47 l-28 -10 23
-12 c18 -10 22 -9 22 3 0 7 7 16 15 20 8 3 15 17 15 31 0 18 4 24 13 20 6 -3
1 2 -12 12 -41 31 -90 86 -85 95 8 12 10 11 60 -27z"/>
<path d="M1228 3373 c-35 -22 -36 -32 -3 -25 14 2 23 8 20 12 -3 4 2 11 11 14
22 8 26 8 19 -4 -3 -5 0 -10 7 -11 7 0 3 -5 -9 -11 -34 -16 -30 -42 5 -34 26
6 25 5 -7 -16 -24 -15 -36 -19 -39 -10 -2 7 -11 12 -19 12 -9 0 -13 6 -10 15
9 21 -8 27 -37 13 -17 -7 -25 -17 -21 -27 4 -14 -7 -16 -72 -16 -52 0 -78 4
-80 13 -4 9 1 10 21 2 17 -6 26 -6 26 0 0 6 7 10 15 10 12 0 13 4 3 19 -6 10
-21 18 -32 18 -12 0 -59 3 -106 7 -69 6 -89 5 -105 -7 -26 -20 -11 -35 17 -18
11 7 32 15 46 17 24 5 24 5 -5 -20 -25 -21 -39 -25 -81 -23 -27 1 -48 5 -45
10 7 12 -12 8 -25 -5 -9 -9 -12 -9 -12 1 0 11 -3 11 -17 0 -12 -11 -17 -11
-20 -2 -3 9 -12 9 -29 2 -30 -11 -127 -15 -142 -5 -5 3 -66 8 -135 11 -94 4
-137 1 -176 -11 -28 -8 -57 -14 -64 -13 -33 4 -41 -2 -17 -15 14 -8 29 -12 34
-9 5 4 6 1 2 -6 -5 -7 -15 -10 -24 -6 -9 3 -40 3 -69 -1 -46 -5 -51 -8 -37
-21 10 -10 25 -13 44 -9 17 3 30 2 30 -3 0 -4 -19 -12 -42 -17 -43 -9 -43 -9
-46 -56 -2 -27 -1 -48 1 -48 16 0 67 24 67 31 0 5 9 9 20 9 11 0 20 4 20 10 0
5 10 14 23 20 20 10 20 10 5 -3 -27 -21 -22 -34 12 -29 16 2 27 8 24 13 -3 5
2 12 11 16 10 3 20 1 24 -6 4 -7 27 -14 51 -16 23 -3 49 -10 56 -16 8 -6 21
-8 30 -5 15 6 16 -2 11 -71 -4 -42 -11 -79 -17 -83 -6 -4 -5 -13 4 -25 18 -24
6 -66 -32 -114 -41 -54 -52 -85 -52 -158 0 -58 3 -67 25 -85 20 -15 25 -28 25
-64 0 -24 6 -53 13 -64 10 -17 9 -22 -1 -29 -10 -6 -8 -13 7 -30 11 -12 17
-29 14 -37 -5 -14 30 -67 40 -58 2 3 1 17 -3 32 -12 38 -32 122 -38 156 -3 21
-1 27 9 24 8 -2 15 -18 17 -34 2 -16 11 -45 20 -64 9 -19 16 -37 17 -40 0 -3
11 -27 24 -53 17 -34 21 -57 17 -80 -7 -38 4 -51 88 -106 39 -26 56 -31 80
-27 25 5 34 1 62 -29 19 -22 41 -35 56 -35 18 0 28 -9 41 -38 9 -21 17 -42 17
-46 0 -10 45 -46 78 -63 29 -16 35 -16 27 -3 -8 13 24 25 36 13 5 -5 13 -37
17 -71 9 -61 8 -64 -24 -109 -40 -56 -51 -98 -33 -119 11 -14 10 -18 -5 -30
-22 -16 -16 -54 18 -99 21 -28 56 -110 71 -165 10 -34 33 -59 75 -80 73 -37
87 -78 91 -255 1 -63 8 -128 17 -153 11 -32 12 -53 4 -82 -5 -21 -6 -42 -2
-47 5 -4 11 -26 14 -48 4 -21 11 -42 17 -46 6 -4 15 -25 19 -48 6 -32 4 -41
-6 -41 -8 0 -14 -4 -14 -10 0 -5 5 -10 10 -10 6 0 10 -9 10 -19 0 -11 7 -26
15 -35 9 -8 15 -17 13 -18 -4 -6 34 -57 48 -62 17 -7 58 30 43 39 -5 4 -1 18
11 35 25 35 25 42 -1 58 -19 12 -19 15 -6 30 16 19 29 72 17 72 -4 0 -11 7
-14 15 -3 9 -1 15 7 14 32 -4 39 2 35 26 -4 20 -1 25 16 25 12 0 32 7 45 16
27 20 22 59 -12 86 -21 17 -21 17 16 7 48 -13 68 2 93 70 10 25 22 52 27 59 6
7 10 32 9 54 -2 33 4 48 25 70 15 15 34 28 43 28 9 0 24 8 33 18 23 25 49 138
44 193 -2 27 0 49 4 49 4 0 12 14 18 30 5 17 19 44 31 59 30 43 26 131 -7 131
-8 0 -29 11 -47 25 -18 14 -40 25 -49 25 -21 0 -67 21 -67 30 0 4 -12 15 -26
25 -19 12 -29 14 -39 5 -11 -9 -12 -7 -8 9 8 30 -31 28 -45 -1 -9 -21 -11 -21
-11 -4 -1 11 5 27 13 35 12 13 12 23 3 55 -18 57 -58 96 -99 96 -27 0 -37 6
-51 29 -10 17 -26 33 -37 36 -11 4 -20 12 -20 18 0 24 -36 42 -85 44 -27 1
-51 6 -53 12 -2 6 -10 11 -18 11 -8 0 -14 5 -14 12 0 6 -7 3 -15 -8 -8 -10
-15 -29 -15 -42 0 -13 -4 -21 -9 -18 -5 3 -5 21 -1 41 4 19 6 35 4 35 -18 0
-82 -55 -93 -80 -12 -28 -15 -30 -30 -16 -12 11 -28 14 -52 10 -49 -8 -64 22
-55 109 7 72 3 77 -60 77 -19 0 -34 2 -34 4 0 2 13 34 30 70 24 53 27 68 15
72 -29 11 -59 -1 -65 -26 -6 -28 -68 -64 -92 -55 -27 11 -38 91 -20 159 25
101 71 143 144 131 27 -5 38 -4 34 3 -7 13 49 27 65 16 6 -4 21 -7 33 -8 17
-1 22 -8 24 -41 1 -22 6 -47 9 -55 3 -8 5 -18 5 -22 -1 -5 2 -8 8 -8 15 0 23
46 17 92 -8 56 5 81 58 118 73 50 86 68 79 109 -4 25 -2 32 4 22 8 -11 18 -5
48 28 21 22 47 41 59 41 11 0 25 10 30 22 6 13 33 32 64 46 40 17 51 19 41 7
-16 -20 -8 -29 17 -17 10 5 35 17 57 28 21 10 33 20 26 22 -6 2 -17 -1 -22 -6
-15 -15 -48 4 -48 26 0 10 5 23 12 30 18 18 -26 16 -64 -4 -16 -9 -27 -11 -24
-5 14 22 100 51 150 51 30 0 61 6 74 16 34 23 26 4 -15 -38 l-37 -38 32 0 c18
0 32 -5 32 -11 0 -8 5 -8 15 1 10 9 15 9 15 1 0 -6 5 -11 10 -11 19 0 10 49
-11 60 -13 7 -17 16 -12 23 21 29 14 62 -17 80 -16 10 -30 27 -30 37 0 10 -5
31 -11 47 -9 25 -12 26 -23 11 -7 -9 -24 -20 -39 -23 -24 -6 -27 -4 -27 18 0
31 -22 50 -65 54 -30 3 -36 -1 -50 -27 -8 -16 -20 -30 -25 -30 -6 0 -8 -11 -4
-24 4 -18 -1 -28 -22 -45 -15 -11 -32 -21 -39 -21 -8 0 -11 -8 -8 -19 3 -12
-3 -24 -18 -34 -30 -21 -42 -12 -37 29 2 20 0 34 -7 34 -22 0 -103 44 -115 63
-10 17 -9 23 6 35 34 25 117 62 140 62 13 0 26 5 29 10 3 6 11 10 18 10 6 0 2
-6 -9 -14 -24 -18 -12 -31 16 -16 11 6 31 8 43 4 19 -5 17 -2 -8 20 l-30 26
40 0 c28 0 46 6 57 19 9 11 14 21 12 24 -14 14 69 14 97 0 l32 -16 -39 -20
c-34 -18 -47 -22 -86 -26 -5 -1 -8 -4 -8 -9 0 -8 73 -29 134 -38 37 -5 39 -4
25 12 -12 16 -12 17 4 11 11 -4 17 -2 17 8 0 8 -5 15 -12 15 -9 0 -9 3 -1 11
7 7 17 8 29 1 14 -7 28 -5 54 9 31 16 32 18 12 19 -14 0 -26 7 -29 18 -5 21
-96 58 -114 46 -8 -4 -9 -3 -5 4 4 7 2 12 -4 12 -6 0 -8 5 -5 10 4 6 -14 10
-47 10 -29 0 -69 3 -88 5 -24 4 -44 0 -62 -12z"/>
<path d="M4773 1874 c-3 -11 -15 -28 -25 -39 -58 -64 -68 -77 -68 -86 0 -5 -8
-9 -17 -7 -13 2 -19 -5 -21 -26 -2 -16 1 -33 7 -39 6 -6 11 -24 11 -39 0 -22
5 -28 23 -29 39 -1 60 -7 68 -21 11 -16 27 3 36 45 3 15 10 30 14 33 5 3 9 16
9 29 0 13 5 25 11 27 9 3 9 10 0 27 -16 29 -22 61 -11 61 21 0 19 34 -5 57
-23 24 -25 24 -32 7z"/>
<path d="M4392 1795 c40 -55 40 -56 73 -127 29 -65 79 -128 102 -128 8 0 13
-6 11 -12 -9 -26 18 -37 145 -63 10 -2 17 3 17 11 0 8 -8 14 -17 14 -15 0 -16
2 -3 10 12 8 11 10 -6 10 -11 0 -23 3 -27 6 -3 4 -24 8 -46 9 -54 4 -61 10
-61 51 0 23 -9 48 -26 69 -14 19 -23 38 -20 44 3 5 3 11 -1 13 -5 1 -35 32
-68 68 -34 36 -70 66 -83 68 -23 3 -23 2 10 -43z"/>
<path d="M5076 1671 c-6 -9 9 -25 34 -34 9 -3 6 -6 -10 -7 -14 -1 -19 -4 -12
-7 6 -2 12 -11 12 -19 0 -8 5 -14 12 -14 6 0 28 -8 49 -17 42 -18 61 -62 39
-88 -10 -13 -8 -15 13 -15 14 0 29 -4 32 -10 11 -18 53 -11 60 10 12 37 31 26
79 -46 1 -1 14 -4 29 -8 l28 -7 -26 45 c-14 25 -25 51 -23 58 5 22 -65 84
-133 119 l-63 31 -23 -26 c-26 -30 -43 -27 -43 9 0 28 -41 48 -54 26z"/>
<path d="M5267 1355 c-8 -28 -18 -67 -22 -87 -7 -43 -21 -47 -66 -21 -37 22
-44 45 -26 82 17 34 13 41 -23 41 -14 0 -32 6 -39 13 -10 10 -12 9 -9 -3 2 -9
-4 -15 -14 -15 -21 0 -62 -51 -52 -66 4 -7 -7 -3 -25 7 l-31 19 -39 -42 c-21
-24 -41 -40 -44 -36 -4 3 -11 -7 -17 -23 -17 -44 -36 -60 -88 -75 -68 -18
-111 -56 -119 -102 -3 -20 -10 -40 -15 -43 -4 -3 -5 -34 -2 -69 6 -62 -8 -125
-30 -125 -4 0 -3 -7 4 -15 16 -19 35 -19 63 0 12 8 32 13 44 13 12 -1 36 5 55
14 112 52 191 51 206 -4 l7 -30 28 22 c30 24 36 17 10 -13 -16 -18 -16 -20 -1
-14 14 5 15 0 12 -33 -4 -35 -2 -40 21 -46 14 -3 31 -4 39 -1 7 3 19 0 25 -6
8 -8 14 -8 23 1 7 7 20 12 30 12 20 0 151 132 176 177 47 86 50 95 46 136 -6
68 -8 77 -16 77 -4 0 -8 13 -8 28 0 17 -9 36 -24 49 -21 18 -23 28 -20 72 2
39 0 53 -11 57 -8 4 -15 18 -16 33 0 14 -4 35 -8 46 -6 16 -11 11 -24 -30z"/>
<path d="M3421 1330 c-12 -22 -34 -45 -49 -52 -23 -11 -28 -21 -32 -68 -3 -30
-12 -64 -19 -76 -20 -30 -3 -98 25 -102 12 -2 26 3 32 11 14 17 72 192 72 218
0 10 4 20 9 23 8 5 -1 71 -11 82 -3 2 -14 -14 -27 -36z"/>
</g>
</svg>
